<svg xmlns="http://www.w3.org/2000/svg" xmlns:svg="http://www.w3.org/2000/svg" xmlns:xlink="http://www.w3.org/1999/xlink" id="svg2" width="137.939" height="137.939" version="1.1" viewBox="0 0 137.939 137.939"><title id="title1157">Org-Journal icon</title><defs id="defs4"><filter id="filter3788" width="1.2" height="1.2" x="-.1" y="-.1" style="color-interpolation-filters:sRGB"><feGaussianBlur id="feGaussianBlur3790" stdDeviation="12.24"/></filter><linearGradient id="linearGradient4143" x1="516.44" x2="515.66" y1="727.92" y2="476.36" gradientTransform="matrix(0.41341,0,0,0.3501612,-127.93,-40.076715)" gradientUnits="userSpaceOnUse"><stop id="stop4013" offset="0" style="stop-color:#000;stop-opacity:.46948"/><stop id="stop4015" offset="1" style="stop-color:#000;stop-opacity:0"/></linearGradient><clipPath id="clipPath1091" clipPathUnits="userSpaceOnUse"><rect style="fill:#551400;fill-opacity:1;stroke:none;stroke-width:18.72900009;stroke-miterlimit:4;stroke-dasharray:none;stroke-opacity:1" id="rect1093" width="5.919" height="7.296" x="15.879" y="165.256"/></clipPath><clipPath id="clipPath1098" clipPathUnits="userSpaceOnUse"><rect style="fill:#551400;fill-opacity:1;stroke:none;stroke-width:18.72900009;stroke-miterlimit:4;stroke-dasharray:none;stroke-opacity:1" id="rect1100" width="5.919" height="7.296" x="15.879" y="165.256"/></clipPath><linearGradient id="linearGradient1102" x1="516.44" x2="515.66" y1="727.92" y2="476.36" gradientTransform="matrix(0.41341,0,0,0.3501612,-127.93,-40.076715)" gradientUnits="userSpaceOnUse" xlink:href="#linearGradient4143"/><linearGradient id="linearGradient1178" x1="516.44" x2="515.66" y1="727.92" y2="476.36" gradientTransform="matrix(0.41341,0,0,0.3501612,-127.93,-40.076715)" gradientUnits="userSpaceOnUse" xlink:href="#linearGradient4143"/></defs><g id="layer1" transform="translate(-10.022537,-44.067024)" style="display:inline"><rect style="display:none;fill:#000;fill-rule:evenodd;stroke-width:.38047358;filter:url(#filter3788)" id="rect4055" width="126.226" height="137.939" x="15.879" y="44.067" rx="8.232" ry="8.232"/><rect style="fill:#7a9;fill-opacity:1;fill-rule:evenodd;stroke-width:.41341001" id="rect4019" width="5.507" height="34.342" x="139.464" y="57.102" rx="1.944" ry="1.944"/><path style="fill:#81aa4e;fill-opacity:1;fill-rule:evenodd;stroke-width:.41341001" id="rect4021" d="m 139.46359,91.220637 v 17.337173 c 0,0.62644 0.86097,1.13477 1.93786,1.13477 h 1.61486 c 1.07689,0 1.9508,-0.50833 1.9508,-1.13477 V 91.220637 c 0,0.62644 -0.87387,1.127245 -1.9508,1.127245 h -1.61486 c -1.07689,0 -1.93786,-0.500805 -1.93786,-1.127245 z"/><path style="fill:#a04d32;fill-opacity:1;fill-rule:evenodd;stroke-width:.41341001" id="path4026" d="M 139.46359,109.47682 V 126.814 c 0,0.62644 0.86097,1.13477 1.93786,1.13477 h 1.61486 c 1.07689,0 1.9508,-0.50833 1.9508,-1.13477 v -17.33718 c 0,0.62644 -0.87387,1.12725 -1.9508,1.12725 h -1.61486 c -1.07689,0 -1.93786,-0.50081 -1.93786,-1.12725 z"/><path style="fill:#aa4e6d;fill-opacity:1;fill-rule:evenodd;stroke-width:.41341001" id="path4032" d="m 139.46359,127.72887 v 13.0803 c 0,0.47261 0.86097,0.85613 1.93786,0.85613 h 1.61486 c 1.07689,0 1.9508,-0.38351 1.9508,-0.85613 v -13.0803 c 0,0.47262 -0.87387,0.85047 -1.9508,0.85047 h -1.61486 c -1.07689,0 -1.93786,-0.37785 -1.93786,-0.85047 z"/><rect style="fill:#551400;fill-opacity:1;fill-rule:evenodd;stroke-width:.38047358" id="rect2985" width="126.226" height="137.939" x="15.879" y="44.067" rx="8.232" ry="8.232"/><path style="fill:#801e00;fill-opacity:1;fill-rule:evenodd;stroke-width:.37095353" id="rect3983" d="m 28.859877,56.06061 h 96.370003 c 4.85922,0 8.77132,3.033328 8.77132,6.801272 V 163.21834 c 0,3.76795 -3.91206,6.80127 -8.77132,6.80127 H 28.859877 Z"/><rect style="fill:url(#linearGradient1178);fill-rule:evenodd;stroke-width:.38047358" id="rect4009" width="126.226" height="137.939" x="15.879" y="44.067" rx="8.232" ry="8.232"/><rect style="opacity:.046948;fill:#fff;fill-rule:evenodd;stroke-width:.38047358" id="rect4053" width="126.226" height="137.939" x="15.879" y="44.067" rx="8.232" ry="8.232"/></g><g id="layer4" transform="translate(-6.2823358,-37.055724)" style="display:inline"><g id="g1155"><g id="g1365"><circle style="fill:#fff;fill-rule:evenodd;stroke-width:.48232546" id="path3823" cx="18.677" cy="54.237" r="2.268"/><path style="fill:none;stroke:#796958;stroke-width:2.90646362;stroke-linecap:round;stroke-opacity:1" id="path3825" d="M 63.321355,-1.1787056 A 4.4405093,9.6195068 0 0 1 57.934997,1.4534005 4.4405093,9.6195068 0 0 1 55.529627,-9.3136709" transform="matrix(0.17097285,0.98527574,-0.99917734,0.04055425,0,0)"/><path style="fill:none;stroke:#fff;stroke-width:10.77460766;stroke-linecap:round;stroke-miterlimit:4;stroke-dasharray:none;filter:url(#filter3788)" id="path3827" d="m 234.72481,306.71727 a 54.857033,58.285599 0 0 1 -66.54182,15.9482 54.857033,58.285599 0 0 1 -29.7154,-65.23881" transform="matrix(0.01383973,0.07975506,-0.16490511,0.00669311,59.334685,41.567809)"/></g><g id="g1360"><circle style="fill:#fff;fill-rule:evenodd;stroke-width:.48232546" id="path3831" cx="18.677" cy="62.488" r="2.268"/><path style="fill:none;stroke:#796958;stroke-width:2.90646362;stroke-linecap:round;stroke-opacity:1" id="path3833" d="M 71.636925,0.24420224 A 4.4405093,9.6195068 0 0 1 66.250568,2.8763083 4.4405093,9.6195068 0 0 1 63.845198,-7.890763" transform="matrix(0.17097285,0.98527574,-0.99917734,0.04055425,0,0)"/><path style="fill:none;stroke:#fff;stroke-width:10.77700043;stroke-linecap:round;filter:url(#filter3788)" id="path3835" d="m 234.72481,306.71727 a 54.857033,58.285599 0 0 1 -66.54182,15.9482 54.857033,58.285599 0 0 1 -29.7154,-65.23881" transform="matrix(0.01383973,0.07975506,-0.16490511,0.00669311,59.334685,49.818645)"/></g><g id="g1355"><circle style="fill:#fff;fill-rule:evenodd;stroke-width:.48232546" id="path3839" cx="18.677" cy="70.738" r="2.268"/><path style="fill:none;stroke:#796958;stroke-width:2.90646362;stroke-linecap:round;stroke-opacity:1" id="path3841" d="M 79.95208,1.6670385 A 4.4405093,9.6195068 0 0 1 74.565723,4.2991446 4.4405093,9.6195068 0 0 1 72.160353,-6.4679267" transform="matrix(0.17097285,0.98527574,-0.99917734,0.04055425,0,0)"/><path style="fill:none;stroke:#fff;stroke-width:10.77700043;stroke-linecap:round;filter:url(#filter3788)" id="path3843" d="m 234.72481,306.71727 a 54.857033,58.285599 0 0 1 -66.54182,15.9482 54.857033,58.285599 0 0 1 -29.7154,-65.23881" transform="matrix(0.01383973,0.07975506,-0.16490511,0.00669311,59.334685,58.069069)"/></g><g id="g1350"><circle style="fill:#fff;fill-rule:evenodd;stroke-width:.48232546" id="path3847" cx="18.677" cy="78.987" r="2.268"/><path style="fill:none;stroke:#796958;stroke-width:2.90646362;stroke-linecap:round;stroke-opacity:1" id="path3849" d="M 88.265572,3.0895899 A 4.4405093,9.6195068 0 0 1 82.879215,5.721696 4.4405093,9.6195068 0 0 1 80.473844,-5.0453753" transform="matrix(0.17097285,0.98527574,-0.99917734,0.04055425,0,0)"/><path style="fill:none;stroke:#fff;stroke-width:10.77700043;stroke-linecap:round;filter:url(#filter3788)" id="path3851" d="m 234.72481,306.71727 a 54.857033,58.285599 0 0 1 -66.54182,15.9482 54.857033,58.285599 0 0 1 -29.7154,-65.23881" transform="matrix(0.01383973,0.07975506,-0.16490511,0.00669311,59.334685,66.317838)"/></g><g id="g1345"><circle style="fill:#fff;fill-rule:evenodd;stroke-width:.48232546" id="path3855" cx="18.677" cy="87.239" r="2.268"/><path style="fill:none;stroke:#796958;stroke-width:2.90646362;stroke-linecap:round;stroke-opacity:1" id="path3857" d="M 96.581978,4.5126402 A 4.4405093,9.6195068 0 0 1 91.195621,7.1447463 4.4405093,9.6195068 0 0 1 88.790251,-3.6223251" transform="matrix(0.17097285,0.98527574,-0.99917734,0.04055425,0,0)"/><path style="fill:none;stroke:#fff;stroke-width:10.77700043;stroke-linecap:round;filter:url(#filter3788)" id="path3859" d="m 234.72481,306.71727 a 54.857033,58.285599 0 0 1 -66.54182,15.9482 54.857033,58.285599 0 0 1 -29.7154,-65.23881" transform="matrix(0.01383973,0.07975506,-0.16490511,0.00669311,59.334685,74.569502)"/></g><g id="g1340"><circle style="fill:#fff;fill-rule:evenodd;stroke-width:.48232546" id="path3863" cx="18.677" cy="95.491" r="2.268"/><path style="fill:none;stroke:#796958;stroke-width:2.90646362;stroke-linecap:round;stroke-opacity:1" id="path3865" d="M 104.89838,5.9356907 A 4.4405093,9.6195068 0 0 1 99.512028,8.5677967 4.4405093,9.6195068 0 0 1 97.106657,-2.1992746" transform="matrix(0.17097285,0.98527574,-0.99917734,0.04055425,0,0)"/><path style="fill:none;stroke:#fff;stroke-width:10.77700043;stroke-linecap:round;filter:url(#filter3788)" id="path3867" d="m 234.72481,306.71727 a 54.857033,58.285599 0 0 1 -66.54182,15.9482 54.857033,58.285599 0 0 1 -29.7154,-65.23881" transform="matrix(0.01383973,0.07975506,-0.16490511,0.00669311,59.334685,82.821166)"/></g><g id="g1335"><circle style="fill:#fff;fill-rule:evenodd;stroke-width:.48232546" id="path3871" cx="18.677" cy="103.742" r="2.268"/><path style="fill:none;stroke:#796958;stroke-width:2.90646362;stroke-linecap:round;stroke-opacity:1" id="path3873" d="M 113.21479,7.3587409 A 4.4405093,9.6195068 0 0 1 107.82843,9.990847 4.4405093,9.6195068 0 0 1 105.42306,-0.77622437" transform="matrix(0.17097285,0.98527574,-0.99917734,0.04055425,0,0)"/><path style="fill:none;stroke:#fff;stroke-width:10.77700043;stroke-linecap:round;filter:url(#filter3788)" id="path3875" d="m 234.72481,306.71727 a 54.857033,58.285599 0 0 1 -66.54182,15.9482 54.857033,58.285599 0 0 1 -29.7154,-65.23881" transform="matrix(0.01383973,0.07975506,-0.16490511,0.00669311,59.334685,91.072829)"/></g><g id="g1330"><circle style="fill:#fff;fill-rule:evenodd;stroke-width:.48232546" id="path3879" cx="18.677" cy="111.994" r="2.268"/><path style="fill:none;stroke:#796958;stroke-width:2.90646362;stroke-linecap:round;stroke-opacity:1" id="path3881" d="M 121.5312,8.7817913 A 4.4405093,9.6195068 0 0 1 116.14484,11.413897 4.4405093,9.6195068 0 0 1 113.73947,0.64682603" transform="matrix(0.17097285,0.98527574,-0.99917734,0.04055425,0,0)"/><path style="fill:none;stroke:#fff;stroke-width:10.77700043;stroke-linecap:round;filter:url(#filter3788)" id="path3883" d="m 234.72481,306.71727 a 54.857033,58.285599 0 0 1 -66.54182,15.9482 54.857033,58.285599 0 0 1 -29.7154,-65.23881" transform="matrix(0.01383973,0.07975506,-0.16490511,0.00669311,59.334685,99.324493)"/></g><g id="g1325"><circle style="fill:#fff;fill-rule:evenodd;stroke-width:.48232546" id="path3887" cx="18.677" cy="120.241" r="2.268"/><path style="fill:none;stroke:#796958;stroke-width:2.90646362;stroke-linecap:round;stroke-opacity:1" id="path3889" d="M 129.84343,10.204128 A 4.4405093,9.6195068 0 0 1 124.45707,12.836234 4.4405093,9.6195068 0 0 1 122.0517,2.0691631" transform="matrix(0.17097285,0.98527574,-0.99917734,0.04055425,0,0)"/><path style="fill:none;stroke:#fff;stroke-width:10.77700043;stroke-linecap:round;filter:url(#filter3788)" id="path3891" d="m 234.72481,306.71727 a 54.857033,58.285599 0 0 1 -66.54182,15.9482 54.857033,58.285599 0 0 1 -29.7154,-65.23881" transform="matrix(0.01383973,0.07975506,-0.16490511,0.00669311,59.334685,107.57202)"/></g><g id="g1320"><circle style="fill:#fff;fill-rule:evenodd;stroke-width:.48232546" id="path3895" cx="18.677" cy="128.493" r="2.268"/><path style="fill:none;stroke:#796958;stroke-width:2.90646362;stroke-linecap:round;stroke-opacity:1" id="path3897" d="m 138.15984,11.62718 a 4.4405093,9.6195068 0 0 1 -5.38635,2.632106 4.4405093,9.6195068 0 0 1 -2.40537,-10.7670716" transform="matrix(0.17097285,0.98527574,-0.99917734,0.04055425,0,0)"/><path style="fill:none;stroke:#fff;stroke-width:10.77700043;stroke-linecap:round;filter:url(#filter3788)" id="path3899" d="m 234.72481,306.71727 a 54.857033,58.285599 0 0 1 -66.54182,15.9482 54.857033,58.285599 0 0 1 -29.7154,-65.23881" transform="matrix(0.01383973,0.07975506,-0.16490511,0.00669311,59.334685,115.82369)"/></g><g id="g1315"><circle style="fill:#fff;fill-rule:evenodd;stroke-width:.48232546" id="path3903" cx="18.677" cy="136.745" r="2.268"/><path style="fill:none;stroke:#796958;stroke-width:2.90646362;stroke-linecap:round;stroke-opacity:1" id="path3905" d="m 146.47625,13.050229 a 4.4405093,9.6195068 0 0 1 -5.38636,2.632106 4.4405093,9.6195068 0 0 1 -2.40537,-10.7670711" transform="matrix(0.17097285,0.98527574,-0.99917734,0.04055425,0,0)"/><path style="fill:none;stroke:#fff;stroke-width:10.77700043;stroke-linecap:round;filter:url(#filter3788)" id="path3907" d="m 234.72481,306.71727 a 54.857033,58.285599 0 0 1 -66.54182,15.9482 54.857033,58.285599 0 0 1 -29.7154,-65.23881" transform="matrix(0.01383973,0.07975506,-0.16490511,0.00669311,59.334685,124.07535)"/></g><g id="g1310"><circle style="fill:#fff;fill-rule:evenodd;stroke-width:.48232546" id="path3911" cx="18.677" cy="144.996" r="2.268"/><path style="fill:none;stroke:#796958;stroke-width:2.90646362;stroke-linecap:round;stroke-opacity:1" id="path3913" d="m 154.79264,14.473279 a 4.4405093,9.6195068 0 0 1 -5.38636,2.632106 4.4405093,9.6195068 0 0 1 -2.40537,-10.7670717" transform="matrix(0.17097285,0.98527574,-0.99917734,0.04055425,0,0)"/><path style="fill:none;stroke:#fff;stroke-width:10.77700043;stroke-linecap:round;filter:url(#filter3788)" id="path3915" d="m 234.72481,306.71727 a 54.857033,58.285599 0 0 1 -66.54182,15.9482 54.857033,58.285599 0 0 1 -29.7154,-65.23881" transform="matrix(0.01383973,0.07975506,-0.16490511,0.00669311,59.334685,132.32701)"/></g><circle id="path3815" cx="18.678" cy="153.244" r="2.268" style="fill:#fff;fill-rule:evenodd;stroke-width:.48232546"/><path id="path3817" d="m 163.1049,15.895557 a 4.4405093,9.6195068 0 0 1 -5.38636,2.632106 4.4405093,9.6195068 0 0 1 -2.40537,-10.7670712" transform="matrix(0.17097285,0.98527574,-0.99917734,0.04055425,0,0)" style="fill:none;stroke:#796958;stroke-width:2.90646362;stroke-linecap:round;stroke-opacity:1"/><path id="path3819" d="m 234.72481,306.71727 a 54.857033,58.285599 0 0 1 -66.54182,15.9482 54.857033,58.285599 0 0 1 -29.7154,-65.23881" transform="matrix(0.01383973,0.08380529,-0.16490511,0.00703301,59.334745,139.92814)" style="fill:none;stroke:#fff;stroke-width:10.5133543;stroke-linecap:round;filter:url(#filter3788)"/></g><rect id="rect1086" width="5.919" height="7.546" x="12.139" y="157.994" style="fill:#551400;fill-opacity:1;stroke:none;stroke-width:18.72900009;stroke-miterlimit:4;stroke-dasharray:none;stroke-opacity:1"/><rect id="rect1095" width="126.226" height="137.939" x="15.879" y="44.067" clip-path="url(#clipPath1098)" rx="8.232" ry="7.959" transform="matrix(1,0,0,1.0343133,-3.7402004,-12.932104)" style="display:inline;fill:url(#linearGradient1102);fill-rule:evenodd;stroke-width:.37410927"/><rect id="rect1088" width="126.226" height="137.939" x="15.879" y="44.067" clip-path="url(#clipPath1091)" rx="8.233" ry="7.959" transform="matrix(0.99997154,0,0,1.0343133,-3.7397485,-12.932104)" style="display:inline;opacity:.046948;fill:#fff;fill-rule:evenodd;stroke-width:.37411457"/></g><g id="layer2" transform="translate(-6.2823358,-37.055724)" style="display:inline"><g id="g183" transform="matrix(0.6897526,0,0,0.6897526,27.693509,51.007642)"><path id="path117" d="m 141.044,59.449 c -0.205,-3.15 -2.842,-4.366 -5.993,-2.125 -7.219,-1.297 -14.305,-0.687 -17.8,-0.981 -7.662,-1.073 -14.041,-5.128 -14.041,-5.128 0.932,-1.239 0.486,-3.917 -5.498,-4.101 -1.646,-0.542 -3.336,-1.327 -4.933,-1.979 0.544,-1.145 -0.133,-2.836 -0.133,-2.836 2.435,-0.672 2.808,-3.842 1.848,-5.709 3.106,0.084 2.612,-4.718 2.183,-6.381 2.435,-0.923 2.771,-3.831 1.763,-6.129 2.938,-0.671 3.022,-4.114 2.771,-6.548 3.022,-0.168 2.603,-5.457 2.603,-6.549 2.604,-1.679 2.016,-3.946 2.425,-6.573 1.605,-3.25 -0.577,-4.173 -2.116,-0.71 -1.651,3.001 -3.769,4.311 -3.75,6.528 0.755,1.259 -5.625,3.106 -3.61,7.052 -1.428,1.763 -4.785,4.03 -3.592,6.733 -0.606,1.326 -4.888,4.433 -3.041,7.371 -4.029,2.687 -3.789,3.335 -2.938,5.793 -1.147,0.736 -2.318,1.862 -2.995,3.094 -1.319,-1.568 -2.603,-4.429 -2.584,-8.294 0,-3.275 -6.099,0.318 -6.099,6.784 0,0.556 -0.057,1.061 -0.135,1.542 -2.11,0.243 -4.751,0.707 -8.08,1.494 -0.106,0.073 -0.157,0.186 -0.182,0.316 C 66.986,41.628 66.886,41.112 66.84,40.56 66.258,36.77 61.906,31 59.783,38.126 c -1.096,2.611 -1.74,4.392 -2.115,5.789 v 0 c 0,0 -0.336,0.226 -0.957,0.61 -2.619,1.622 -3.562,6.686 -13.075,9.883 -3.211,1.079 -7.4,1.945 -12.959,2.395 -9.57,0.773 -27.888,17.314 -29.115,33.097 -0.283,3.964 0.31,13.737 3.596,22.31 0.002,0.006 0.003,0.014 0.005,0.02 0.015,0.042 0.032,0.081 0.048,0.122 0.052,0.134 0.103,0.267 0.156,0.398 0.28,0.718 0.579,1.405 0.895,2.062 1.885,4.028 4.46,7.59 7.934,9.882 1.764,1.376 3.342,2.258 4.372,2.762 5.907,9.749 18.442,22.252 42.075,14.859 36.255,-10.284 56.263,13.809 58.568,15.5 3.399,3.433 -8.786,-29.835 -34.587,-44.788 -15.253,-8.322 -5.678,-22.656 -4.585,-27.718 0,0 12.227,8.557 21.087,-4.52 8.004,2.062 13.367,-1.462 20.251,1.03 4.183,1.833 21.77,0.726 15.234,-9.104 4.11,-2.683 4.544,-1.815 6.6,-5.9 1.104,-4.952 -1.403,-6.012 -2.167,-7.366 z M 70.751,46.15 c -0.041,0.018 -0.086,0.04 -0.125,0.056 0.039,-0.034 0.075,-0.062 0.115,-0.102 0.003,0.014 0.007,0.032 0.01,0.046 z m -13.413,4.523 c -0.073,0.429 -0.143,0.829 -0.212,1.216 0.037,-0.832 0.085,-1.714 0.143,-2.646 0.024,0.435 0.05,0.904 0.069,1.43 z M 68.031,44.34 c 0.746,1.124 1.662,2.179 1.662,2.179 0,0 -0.875,-0.79 -1.662,-2.179 z" style="fill:#a04d32;stroke:#000;stroke-width:3"/><path id="path119" d="m 14.093,117.635 c 0,0 10.021,36.105 46.549,24.68 36.255,-10.284 56.263,13.809 58.568,15.5 3.399,3.433 -8.786,-29.835 -34.587,-44.788 -15.253,-8.322 -5.678,-22.656 -4.585,-27.718 0,0 12.227,8.557 21.087,-4.52 8.004,2.062 13.367,-1.462 20.251,1.03 4.183,1.833 21.77,0.726 15.234,-9.104 4.11,-2.683 4.544,-1.815 6.6,-5.9 1.105,-4.952 -1.402,-6.011 -2.166,-7.366 -0.205,-3.15 -2.842,-4.366 -5.993,-2.125 -7.219,-1.297 -14.305,-0.687 -17.8,-0.981 -7.662,-1.073 -14.041,-5.128 -14.041,-5.128 0.932,-1.239 0.486,-3.917 -5.498,-4.101 -3.287,-1.082 -6.752,-3.136 -9.288,-3.162 -2.567,0 -2.914,-2.537 -2.914,-2.537 -1.606,-0.87 -3.924,-4.252 -3.899,-9.438 0,-3.275 -6.099,0.318 -6.099,6.784 0,6.466 -5.818,7.758 -5.818,7.758 0,0 -2.549,-2.281 -2.855,-5.958 -0.582,-3.79 -4.934,-9.56 -7.057,-2.434 -3.226,7.646 -3.485,9.43 -4.115,13.154 -1.31,7.711 -0.345,8.012 -0.345,8.012 l -32.824,23.43 z" style="fill:#7a9;stroke:#000;stroke-width:.5"/><path id="path121" d="m 91.756,56.215 c 1.548,-0.562 0.896,-0.415 1.152,-0.581 -2.959,0.575 -9.635,0.614 -14.317,-1.133 0.392,0.23 2.568,0.962 2.845,1.128 0.218,0.715 0.1,1.438 2.932,2.709 2.559,0.793 5.845,0.461 6.835,-0.529 0.109,-1.684 0.126,-1.065 0.553,-1.594 z" style="fill:#314b49;stroke:#314b49;stroke-width:.75;stroke-linecap:round;stroke-linejoin:round"/><path id="path123" d="m 124.124,75.361 c -2.829,-2.085 -4.881,-0.264 -6.469,-0.413 0.99,-0.645 3.762,-2.062 8.245,-2.062 2.532,0 3.879,2.196 5.57,2.207 1.141,0.007 4.472,-1.71 5.14,-2.378 -0.969,0.838 0.454,1.755 -0.489,3.003 -0.282,0.359 -0.837,1.511 -2.663,2.051 -2.05,0.971 -5.411,1.762 -9.334,-2.408 z" style="fill:#314b49;stroke:#314b49;stroke-width:.5"/><path id="path125" d="m 62.577,37.415 c 0,0 -3.355,7.996 0.312,15.329 3.667,7.333 0.522,-6.829 4.688,-4.162 3.397,0.385 -2.387,-3.215 -2.033,-7.819 -0.176,-2.892 -1.77,-5.194 -2.967,-3.348 z" style="fill:#314b49"/><path id="path127" d="m 126.981,63.799 c 0,1.121 -1.363,2.03 -3.045,2.03 3.573,-1.121 -0.201,-4.653 -3.045,-2.03 0,-1.121 1.363,-2.03 3.045,-2.03 1.682,0 3.045,0.909 3.045,2.03 z" style="fill:#314b49"/><path id="path129" d="m 121.814,61.215 c 3.772,-0.231 6.336,0.323 5.536,3.138 0.548,-1.126 1.292,-2.83 -1.046,-3.507 -1.746,-0.388 -3.299,-0.378 -4.49,0.369 z" style="fill:#314b49"/><path id="path131" d="m 67.574,82.616 c 0,-3.521 -1.509,-7.166 -7.04,-14.583 -1.635,-2.192 -2.62,-4.336 -3.211,-6.275 -1.401,-3.295 -3.426,-8.019 -0.613,-17.233 0,0 0.621,-0.384 0,0 -2.619,1.622 -3.562,6.686 -13.075,9.883 -3.211,1.079 -7.4,1.945 -12.959,2.395 C 21.107,57.576 2.789,74.117 1.562,89.9 c -0.283,3.964 0.31,13.737 3.596,22.31 0.002,0.006 0.003,0.014 0.005,0.02 0.015,0.042 0.032,0.081 0.048,0.122 0.052,0.134 0.103,0.267 0.156,0.398 0.28,0.718 0.579,1.405 0.895,2.062 1.885,4.028 4.46,7.59 7.934,9.882 3.084,2.404 5.606,3.306 5.606,3.306 -2.588,-3.578 -3.77,-7.562 -2.263,-12.32 0.651,2.637 1.903,4.162 3.646,4.777 -0.615,-1.884 -0.827,-3.549 0,-4.651 2.567,6.734 5.353,9.031 8.171,10.686 -2.631,-4.914 -4.032,-10.005 -3.771,-15.337 2.569,6.028 6.596,9.945 10.56,13.954 -3.78,-5.966 -6.911,-12.104 -6.977,-19.046 1.693,2.778 3.935,4.932 6.6,6.601 -1.683,-2.709 -2.505,-5.51 -2.263,-8.423 4.424,4.945 9.361,6.607 14.332,8.046 -5.197,-3.625 -9.843,-7.537 -12.32,-12.572 2.972,1.464 5.948,1.693 8.926,1.383 -3.706,-1.872 -5.069,-5.252 -5.783,-9.052 5.177,5.279 10.587,8.827 16.091,11.692 -5.456,-5.26 -9.479,-10.65 -11.566,-16.218 2.1,1.18 4.157,1.736 6.16,1.509 -2.766,-3.124 -3.465,-6.182 -4.211,-9.241 2.637,3.916 4.959,6.022 7.103,7.103 -2.189,-4.482 -2.034,-8.432 -0.503,-12.068 2.524,1.675 4.902,4.295 6.915,9.303 0.731,-2.386 -0.447,-6.364 -1.886,-10.56 2.175,0.622 4.779,3.351 8.171,9.932 -0.33,-3.865 -2.139,-7.775 -4.148,-11.692 3.027,3.51 7.557,12.713 6.788,10.81 z" style="fill:#a04d32;stroke:#000;stroke-width:.5"/><path id="path133" d="m 83.915,43.558 c 0,0 -0.252,7.472 6.717,2.603 3.61,0.084 2.015,-3.862 2.015,-3.862 2.435,-0.672 2.808,-3.842 1.848,-5.709 3.106,0.084 2.612,-4.718 2.183,-6.381 2.435,-0.923 2.771,-3.831 1.763,-6.129 2.938,-0.671 3.022,-4.114 2.771,-6.548 3.022,-0.168 2.603,-5.457 2.603,-6.549 2.604,-1.679 2.016,-3.946 2.425,-6.573 1.605,-3.25 -0.577,-4.173 -2.116,-0.71 -1.651,3.001 -3.769,4.311 -3.75,6.528 0.755,1.259 -5.625,3.106 -3.61,7.052 -1.428,1.763 -4.785,4.03 -3.592,6.733 -0.606,1.326 -4.888,4.433 -3.041,7.371 -4.029,2.687 -3.789,3.335 -2.938,5.793 -2.155,1.38 -4.409,4.131 -3.278,6.381 z" style="fill:#796958;stroke:#000;stroke-width:.5"/><path id="path135" d="m 101.739,8.295 c 0,0 -0.735,1.324 -0.735,2.133 0,0.809 2.185,0.568 2.927,-0.227 -1.625,0.024 -2.965,0.289 -2.192,-1.906 z" style="fill:#fff"/><path id="path137" d="m 97.478,14.565 c 0,0 -0.812,1.068 -0.183,2.316 0.392,0.98 2.807,0.962 3.549,0.167 -1.625,0.024 -4.14,-0.287 -3.366,-2.483 z" style="fill:#fff"/><path id="path139" d="m 94.343,21.02 c 0,0 -0.998,1.346 -0.492,2.602 0,0.809 2.838,0.956 3.58,0.161 -1.625,0.022 -3.645,-0.489 -3.088,-2.763 z" style="fill:#fff"/><path id="path141" d="m 91.266,28.182 c 0,0 -1.403,1.542 -0.149,2.945 1.438,0.809 3.744,0.049 4.486,-0.746 -1.625,0.022 -4.894,0.076 -4.337,-2.199 z" style="fill:#fff"/><path id="path143" d="m 88.261,33.903 c 0,0 -1.575,1.414 -0.02,3.312 1.438,0.809 4.57,0.198 5.312,-0.597 -1.624,0.024 -5.989,-1.346 -5.292,-2.715 z" style="fill:#fff"/><path id="path145" d="m 85.114,40.644 c 0,0 -1.403,1.542 -0.149,2.945 1.438,0.809 6.036,-0.186 6.778,-0.981 -1.625,0.023 -7.185,0.311 -6.629,-1.964 z" style="fill:#fff"/><path id="path147" d="m 83.997,43.672 c -0.45,-0.45 -0.534,-0.896 -0.367,-1.718 0,0 0.369,-4.107 -16.333,-0.158 -1.072,0.74 2.396,4.722 2.396,4.722 0,0 0.418,0.215 1.047,-0.415 0.253,1.123 0.852,4.081 0.233,4.579 1.245,-0.771 1.868,-1.946 1.676,-4.125 2.122,0.461 3.742,1.64 4.692,3.779 0.304,-1.4 0.603,-2.799 -0.384,-4.126 2.182,0.285 3.88,1.496 5.362,3.124 0.221,-0.933 0.354,-1.883 0,-2.931 1.391,0.473 2.587,1.607 3.71,2.988 0.001,0 0.211,-3.862 -2.032,-5.719 z" style="fill:#a04d32;stroke:#000;stroke-width:.5"/><path id="path149" d="m 67.975,71.318 c 0,0 6.761,13.59 17.595,13.991 10.834,0.401 10.834,-2.73 10.834,-2.73 0,0 -15.527,3.048 -28.429,-11.261 z" style="opacity:.26000001"/><path id="path151" d="m 71.13,79.012 c 2.279,3.104 4.856,5.221 7.722,6.382 0,0 -7.365,11.108 -3.611,20.023 3.754,8.915 13.125,11.053 23.321,21.249 7.942,7.942 17.158,24.961 17.158,24.961 0,0 -17.834,-14.176 -29.42,-13.479 0,0 -2.687,-9.668 -10.585,-17.566 C 64.471,109.337 59.547,94.707 71.13,79.012 Z" style="opacity:.26000001"/><path id="path153" d="M 52.362,51.627 C 48.488,54.128 43.943,58.723 27.947,59.71 10.898,66.494 0.514,86.395 4.17,100.174 c 1.348,7.317 3.891,14.18 3.891,14.18 -0.887,-5.919 -1.383,-11.397 1.033,-13.599 1.435,2.384 2.969,2.468 4.507,2.479 -1.59,-2.404 -1.788,-4.808 0,-7.212 1.489,1.525 2.992,1.881 4.507,1.353 -2.128,-2.449 -1.867,-4.848 0,-7.211 1.388,5.022 4.462,7.453 7.662,9.689 -2.208,-4.333 -4.166,-8.672 -2.93,-13.07 1.323,0.729 2.595,0.644 3.831,0 -1.257,-1.576 -0.925,-3.153 0,-4.732 2.947,3.04 6.213,3.724 9.465,4.507 -2.661,-2.454 -5.543,-4.527 -6.761,-9.465 1.501,-1.811 3.269,-2.685 5.408,-2.253 -1.901,-1.167 -1.65,-2.543 0,-4.057 2.089,1.104 4.195,1.352 6.31,1.127 -2.807,-1.68 -8.424,-4.994 11.269,-20.283 z" style="opacity:.18000004;fill:#fff"/><path id="path155" d="m 78.923,32.771 c 0.996,-0.963 1.146,-0.65 0.854,0.285 -0.982,2.36 0.353,4.647 0.797,6.206 l -3.871,0.114 c 0.108,-2.271 0.247,-4.794 2.22,-6.605 z" style="opacity:.27000002;fill:#fff"/></g></g><g id="layer3" transform="translate(-6.2823358,-37.055724)" style="display:inline"><g id="g234"><rect id="rect3986" width="67.862" height="26.822" x="41.957" y="58.667" rx="4.576" ry="4.576" style="opacity:.42254004;fill:none;stroke:#2b1100;stroke-width:1.19471359;stroke-linecap:round;stroke-linejoin:round;stroke-opacity:1"/><g id="g4004" transform="matrix(0.41341,0,0,0.41341,-133.26569,-68.286786)" style="opacity:.23474001"><rect id="rect3988" width="106.69" height="1.567" x="472.89" y="-331.38" rx=".784" ry=".784" transform="scale(1,-1)" style="fill:#fff"/><rect id="rect3990" width="107.36" height="1.567" x="472.55" y="-345.88" rx=".784" ry=".784" transform="scale(1,-1)" style="fill:#fff"/></g><rect id="rect3994" width="10.218" height="11.62" x="46.583" y="65.563" ry="0" style="opacity:.04225398;fill:#ccc;stroke:#2b1100;stroke-width:.40892866;stroke-linecap:round;stroke-linejoin:round"/></g></g><metadata id="metadata93"/></svg>